<svg width="111" height="50" viewBox="0 0 111 50" fill="none" xmlns="http://www.w3.org/2000/svg">
<g clip-path="url(#clip0_2040_460)">
<path d="M51.7923 13.9844C50.7872 13.9936 49.7863 13.8534 48.8224 13.5684C47.9897 13.3325 47.2057 12.9503 46.507 12.4398L47.2594 10.4914C47.8924 10.9445 48.592 11.2964 49.3332 11.5344C50.1245 11.7843 50.9502 11.9082 51.7801 11.9014C52.7996 11.9014 53.5388 11.7312 53.9976 11.3906C54.2138 11.2452 54.3904 11.0483 54.5116 10.8176C54.6328 10.587 54.6948 10.3298 54.6919 10.0693C54.7009 9.86619 54.6611 9.66389 54.576 9.47927C54.4908 9.29464 54.3628 9.13305 54.2026 9.00794C53.6913 8.67837 53.1158 8.46149 52.5142 8.37174L50.3915 7.92823C47.9751 7.41438 46.7669 6.17358 46.7669 4.20584C46.7485 3.41374 46.9843 2.63658 47.4399 1.98831C47.9171 1.33626 48.5648 0.828293 49.3118 0.520146C50.184 0.159915 51.121 -0.0170762 52.0646 0.000173275C52.9493 -0.00692851 53.829 0.133662 54.6675 0.416152C55.4177 0.656061 56.108 1.05337 56.6923 1.5815L55.9735 3.432C54.8818 2.52366 53.4965 2.04414 52.0768 2.08312C51.3403 2.04056 50.6098 2.23687 49.9938 2.64286C49.7578 2.8063 49.5658 3.02561 49.435 3.28124C49.3043 3.53688 49.2388 3.82089 49.2445 4.10796C49.2353 4.31558 49.2719 4.52268 49.3517 4.71457C49.4315 4.90645 49.5526 5.07841 49.7063 5.21826C50.1712 5.56217 50.7149 5.78406 51.2876 5.86364L53.389 6.30714C54.6614 6.5763 55.6095 7.00044 56.2335 7.57955C56.5463 7.87588 56.7918 8.23599 56.9533 8.63548C57.1147 9.03496 57.1885 9.46449 57.1695 9.89495C57.1838 10.66 56.9545 11.4098 56.5149 12.036C56.0416 12.6809 55.396 13.1792 54.6522 13.4736C53.743 13.8345 52.7703 14.0083 51.7923 13.9844Z" fill="#10385A"/>
<path d="M65.3148 17.2631V12.3692C65.0291 12.8716 64.6042 13.2805 64.0913 13.5468C63.5351 13.8457 62.912 13.9983 62.2806 13.9903C61.5146 14.0126 60.7596 13.8047 60.113 13.3936C59.4664 12.9825 58.9578 12.3871 58.653 11.6841C58.2899 10.8621 58.1124 9.97028 58.133 9.07196C58.1097 8.17242 58.2873 7.27901 58.653 6.4568C58.9686 5.76828 59.4735 5.18374 60.1089 4.77148C60.7573 4.35939 61.5124 4.14669 62.2806 4.15975C62.9345 4.14974 63.5793 4.31333 64.1494 4.63384C64.6776 4.91892 65.1048 5.36008 65.3729 5.89707V4.35856H67.725V17.2631H65.3148ZM62.9596 12.152C63.29 12.1645 63.6187 12.1003 63.9202 11.9645C64.2216 11.8286 64.4874 11.6248 64.6969 11.369C65.1333 10.849 65.3515 10.0813 65.3515 9.06585C65.3515 8.05037 65.1333 7.28162 64.6969 6.75961C64.476 6.51944 64.2077 6.32772 63.9089 6.19657C63.6102 6.06543 63.2874 5.99771 62.9611 5.99771C62.6348 5.99771 62.3121 6.06543 62.0133 6.19657C61.7145 6.32772 61.4462 6.51944 61.2253 6.75961C60.7828 7.26735 60.5616 8.0361 60.5616 9.06585C60.5616 10.0956 60.7808 10.8633 61.2192 11.369C61.429 11.6252 61.6953 11.8293 61.9973 11.9652C62.2993 12.101 62.6287 12.165 62.9596 12.152Z" fill="#10385A"/>
<path d="M73.2581 13.984C70.9457 13.984 69.7885 12.6851 69.7865 10.0873V4.3584H72.1998V10.127C72.1556 10.6575 72.2984 11.1866 72.6035 11.6227C72.7693 11.795 72.9715 11.9279 73.1955 12.0115C73.4194 12.0951 73.6593 12.1274 73.8973 12.106C74.1933 12.1148 74.4877 12.0597 74.7606 11.9447C75.0334 11.8296 75.2783 11.6572 75.4787 11.4392C75.9033 10.9523 76.1226 10.3196 76.0904 9.67436V4.3584H78.5037V13.7913H76.1608V12.3813C75.8754 12.8933 75.452 13.3149 74.9389 13.5983C74.4258 13.8816 73.8434 14.0152 73.2581 13.984Z" fill="#10385A"/>
<path d="M83.734 13.9841C83.0999 13.9976 82.4714 13.8624 81.8988 13.5895C81.3938 13.3495 80.9611 12.9802 80.6448 12.519C80.3421 12.067 80.1843 11.5336 80.1921 10.9897C80.1646 10.3907 80.3633 9.80333 80.7488 9.3441C81.2291 8.87695 81.8425 8.57025 82.5044 8.46627C83.5789 8.26275 84.6717 8.17254 85.765 8.19711H86.4379V7.79336C86.4379 7.14798 86.2972 6.68613 86.0158 6.40473C85.7344 6.12333 85.2572 5.97957 84.5874 5.97957C84.0383 5.98238 83.4924 6.06375 82.9663 6.22121C82.3788 6.39676 81.8157 6.64544 81.2902 6.96141L80.5958 5.32196C80.9648 5.07195 81.3622 4.8666 81.7795 4.71023C82.2491 4.53307 82.7332 4.39696 83.2263 4.30343C83.7001 4.21163 84.1813 4.16351 84.6639 4.15967C86.0403 4.15967 87.0598 4.47777 87.7225 5.11397C88.3852 5.75017 88.7197 6.7371 88.7258 8.07476V13.7914H86.4685V12.2865C86.2608 12.8011 85.8957 13.2369 85.4255 13.5314C84.9167 13.8413 84.3296 13.9984 83.734 13.9841ZM84.2357 12.3232C84.529 12.3311 84.8207 12.2768 85.0917 12.164C85.3626 12.0512 85.6067 11.8824 85.8078 11.6687C86.2232 11.2189 86.4431 10.6227 86.4195 10.0109V9.58574H85.765C84.5568 9.58574 83.7187 9.68056 83.2477 9.86408C83.0354 9.93288 82.8515 10.0695 82.7244 10.253C82.5973 10.4365 82.534 10.6566 82.5442 10.8796C82.5381 11.0747 82.5746 11.2689 82.6512 11.4485C82.7278 11.6281 82.8426 11.7888 82.9877 11.9195C83.3365 12.2091 83.7833 12.3537 84.2357 12.3232Z" fill="#10385A"/>
<path d="M90.7935 13.7916V4.35872H93.1456V6.01652C93.6084 4.89908 94.5984 4.28225 96.1155 4.16602L96.8496 4.10791L97.0026 6.15416L95.6139 6.28874C94.0336 6.44167 93.2435 7.2512 93.2435 8.71732V13.7916H90.7935Z" fill="#10385A"/>
<path d="M102.465 13.9843C101.512 14.0054 100.567 13.7955 99.7125 13.3726C98.9629 12.996 98.3422 12.4052 97.9293 11.675C97.4945 10.8778 97.2781 9.97984 97.3022 9.0721C97.2841 8.17853 97.4946 7.29516 97.914 6.50588C98.3069 5.78918 98.8873 5.19286 99.5932 4.78079C100.337 4.35348 101.183 4.13672 102.04 4.15377C103.378 4.15377 104.435 4.5779 105.212 5.42617C105.989 6.27444 106.378 7.43164 106.38 8.89776V9.61348H99.6054C99.7869 11.2957 100.751 12.1379 102.499 12.1399C103.035 12.1393 103.568 12.0578 104.08 11.8983C104.604 11.7408 105.094 11.4866 105.524 11.1489L106.2 12.77C105.696 13.1711 105.119 13.4722 104.502 13.657C103.844 13.8705 103.157 13.9809 102.465 13.9843ZM102.114 5.81156C101.798 5.79877 101.483 5.85019 101.188 5.96271C100.893 6.07522 100.624 6.24649 100.398 6.46612C99.939 6.9511 99.6596 7.57796 99.6054 8.2432H104.352C104.348 7.58545 104.119 6.94894 103.704 6.43859C103.5 6.22491 103.252 6.05813 102.978 5.94986C102.703 5.84158 102.408 5.79439 102.114 5.81156Z" fill="#10385A"/>
<path d="M51.7923 30.0698C50.788 30.084 49.7871 29.949 48.8224 29.6692C47.9897 29.4332 47.2057 29.051 46.507 28.5405L47.2594 26.5921C47.8924 27.0452 48.592 27.3971 49.3332 27.6351C50.1245 27.885 50.9502 28.0089 51.7801 28.0022C52.7996 28.0022 53.5388 27.8309 53.9976 27.4883C54.2139 27.3437 54.3907 27.1474 54.512 26.9172C54.6332 26.687 54.6951 26.4302 54.6919 26.17C54.7011 25.9669 54.6615 25.7645 54.5763 25.5798C54.4912 25.3952 54.363 25.2336 54.2026 25.1087C53.6952 24.7796 53.124 24.5618 52.5264 24.4694L50.4037 24.0259C47.9873 23.5059 46.7792 22.2611 46.7792 20.2913C46.7612 19.4983 46.9969 18.7203 47.4521 18.0707C47.9295 17.4196 48.5772 16.9126 49.324 16.6056C50.1962 16.2454 51.1332 16.0684 52.0768 16.0856C52.9612 16.0792 53.8407 16.2187 54.6797 16.4985C55.4296 16.7407 56.1196 17.1389 56.7045 17.667L55.9735 19.5174C54.8818 18.6091 53.4965 18.1296 52.0768 18.1686C51.3403 18.126 50.6098 18.3223 49.9938 18.7283C49.7584 18.891 49.5669 19.1093 49.4361 19.3638C49.3054 19.6183 49.2396 19.9012 49.2445 20.1873C49.2355 20.3949 49.2722 20.6019 49.352 20.7938C49.4318 20.9856 49.5527 21.1576 49.7063 21.2976C50.1719 21.6403 50.7153 21.862 51.2876 21.943L53.389 22.3865C54.6614 22.6556 55.6095 23.0798 56.2335 23.6589C56.5465 23.9551 56.792 24.3152 56.9535 24.7147C57.115 25.1142 57.1887 25.5438 57.1695 25.9743C57.1838 26.7393 56.9545 27.4891 56.5149 28.1154C56.0416 28.7602 55.396 29.2585 54.6522 29.5529C53.7434 29.9159 52.7707 30.0918 51.7923 30.0698Z" fill="#10385A"/>
<path d="M63.3144 30.0698C62.3609 30.0909 61.4164 29.881 60.5616 29.458C59.812 29.0815 59.1913 28.4906 58.7784 27.7605C58.3489 26.9618 58.1379 26.0639 58.1667 25.1575C58.1485 24.264 58.3591 23.3806 58.7784 22.5913C59.1713 21.8746 59.7517 21.2783 60.4576 20.8662C61.2012 20.4389 62.0471 20.2222 62.9045 20.2392C64.2422 20.2392 65.2995 20.6634 66.0764 21.5116C66.8533 22.3599 67.2427 23.5171 67.2448 24.9832V25.6989H60.4545C60.6319 27.3812 61.5985 28.2254 63.345 28.2254C63.8822 28.2245 64.4163 28.1431 64.9294 27.9838C65.4539 27.8222 65.9436 27.5639 66.3731 27.2221L67.049 28.8402C66.5456 29.2424 65.9692 29.5436 65.3515 29.7272C64.6946 29.9475 64.0072 30.0631 63.3144 30.0698ZM62.9657 21.8909C62.6502 21.8774 62.3352 21.9285 62.0402 22.041C61.7451 22.1536 61.4761 22.3252 61.2498 22.5454C60.7911 23.03 60.5126 23.6573 60.4607 24.3225H65.2046C65.2011 23.6646 64.9723 23.0277 64.5562 22.5179C64.3518 22.3034 64.103 22.1362 63.8272 22.0279C63.5514 21.9196 63.2553 21.8728 62.9596 21.8909H62.9657Z" fill="#10385A"/>
<path d="M73.1021 30.0699C72.2023 30.0917 71.3121 29.881 70.5175 29.4582C69.7935 29.0651 69.2027 28.4657 68.8199 27.7362C68.4002 26.9262 68.1899 26.024 68.2082 25.1118C68.1872 24.2092 68.3978 23.3162 68.8199 22.5181C69.2067 21.8024 69.7976 21.2179 70.5175 20.8389C71.3169 20.4315 72.2052 20.2297 73.1021 20.2516C73.7121 20.2564 74.3174 20.3597 74.8945 20.5575C75.4347 20.7215 75.9348 20.9965 76.3626 21.365L75.6469 23.0442C75.3163 22.7502 74.9335 22.5209 74.5182 22.3682C74.1332 22.2212 73.7252 22.1436 73.3131 22.1388C72.9524 22.1175 72.5914 22.1765 72.2561 22.3113C71.9208 22.4462 71.6195 22.6536 71.3739 22.9188C70.9172 23.4387 70.6898 24.181 70.6918 25.1455C70.645 25.9521 70.8868 26.749 71.3739 27.3936C71.6131 27.6693 71.9122 27.8865 72.2484 28.0286C72.5845 28.1707 72.9488 28.2339 73.3131 28.2133C73.7224 28.2069 74.1272 28.1282 74.5091 27.9809C74.9315 27.8291 75.3187 27.5928 75.6469 27.2865L76.3626 28.9841C75.9279 29.3462 75.4258 29.6186 74.8853 29.7855C74.3101 29.9758 73.7079 30.0718 73.1021 30.0699Z" fill="#10385A"/>
<path d="M81.5532 30.0697C80.6664 30.0883 79.7898 29.8775 79.0084 29.4579C78.2928 29.0667 77.7086 28.473 77.3292 27.7512C76.9151 26.944 76.71 26.046 76.7327 25.1391C76.7096 24.2341 76.9148 23.3379 77.3292 22.5331C77.7126 21.8165 78.2959 21.2267 79.0084 20.8355C79.7999 20.4433 80.6713 20.2393 81.5547 20.2393C82.4381 20.2393 83.3095 20.4433 84.101 20.8355C84.8119 21.2278 85.394 21.8173 85.7772 22.5331C86.1969 23.3365 86.4073 24.2328 86.3889 25.1391C86.4069 26.0473 86.1965 26.9454 85.7772 27.7512C85.4031 28.475 84.8245 29.0727 84.1133 29.4702C83.3259 29.8876 82.444 30.0941 81.5532 30.0697ZM81.5532 28.2345C81.8833 28.2453 82.2116 28.1804 82.5127 28.0446C82.8139 27.9089 83.0799 27.706 83.2905 27.4514C83.7289 26.9315 83.9471 26.1637 83.945 25.1483C83.943 24.1328 83.7248 23.364 83.2905 22.842C83.0696 22.6019 82.8013 22.4101 82.5025 22.279C82.2037 22.1478 81.881 22.0801 81.5547 22.0801C81.2284 22.0801 80.9057 22.1478 80.6069 22.279C80.3081 22.4101 80.0398 22.6019 79.8189 22.842C79.3805 23.3498 79.1613 24.1185 79.1613 25.1483C79.1613 26.178 79.3846 26.9468 79.8311 27.4545C80.039 27.7082 80.3024 27.9107 80.601 28.0465C80.8996 28.1823 81.2253 28.2476 81.5532 28.2375V28.2345Z" fill="#10385A"/>
<path d="M87.9764 29.8771V20.4442H90.3286V21.9093C90.6378 21.386 91.0898 20.9616 91.6315 20.6858C92.1997 20.3973 92.8296 20.2514 93.4667 20.2607C95.6894 20.2607 96.8017 21.5524 96.8037 24.136V29.8863H94.3935V24.2431C94.3935 23.512 94.2559 22.9768 93.9775 22.6434C93.8161 22.4679 93.6167 22.3315 93.3947 22.2446C93.1726 22.1576 92.9337 22.1225 92.696 22.1417C92.3836 22.1267 92.0716 22.1781 91.7806 22.2925C91.4895 22.4069 91.2261 22.5818 91.0076 22.8055C90.5751 23.2887 90.3499 23.9226 90.3805 24.5703V29.8771H87.9764Z" fill="#10385A"/>
<path d="M102.499 30.0698C101.734 30.0915 100.979 29.8834 100.333 29.4723C99.6871 29.0613 99.1791 28.4661 98.8744 27.7636C98.5095 26.9422 98.3319 26.05 98.3544 25.1515C98.3297 24.2518 98.5074 23.3581 98.8744 22.5363C99.1881 21.8477 99.6909 21.2622 100.324 20.848C100.972 20.4376 101.726 20.225 102.493 20.2362C103.125 20.2321 103.747 20.39 104.3 20.695C104.814 20.9601 105.239 21.3694 105.524 21.8726V16.2783H107.937V29.8771H105.582V28.3142C105.319 28.8591 104.891 29.3075 104.359 29.5957C103.791 29.9137 103.15 30.0772 102.499 30.0698ZM103.175 28.2346C103.505 28.2456 103.833 28.1811 104.134 28.0459C104.435 27.9107 104.701 27.7085 104.912 27.4547C105.347 26.9347 105.567 26.167 105.567 25.1515C105.567 24.136 105.347 23.353 104.912 22.8453C104.691 22.605 104.423 22.4133 104.123 22.2821C103.824 22.1509 103.501 22.0832 103.175 22.0832C102.848 22.0832 102.525 22.1509 102.226 22.2821C101.927 22.4133 101.659 22.605 101.438 22.8453C101.001 23.353 100.783 24.1218 100.783 25.1515C100.783 26.1813 101.001 26.949 101.438 27.4547C101.648 27.7094 101.914 27.9124 102.215 28.0482C102.516 28.1839 102.845 28.2488 103.175 28.2377V28.2346Z" fill="#10385A"/>
<path d="M48.8836 39.0378C48.439 39.0493 47.9992 38.9438 47.6081 38.7319C47.2569 38.5352 46.9725 38.2381 46.7915 37.8785C46.604 37.4697 46.507 37.0253 46.507 36.5756C46.507 36.1258 46.604 35.6814 46.7915 35.2726C46.9744 34.9151 47.2584 34.6194 47.6081 34.4223C47.9997 34.2117 48.4391 34.1063 48.8836 34.1164C49.1955 34.1137 49.5057 34.1634 49.8012 34.2632C50.0673 34.35 50.31 34.4964 50.5108 34.6914L50.2264 35.3827C50.0447 35.2242 49.838 35.0971 49.6146 35.0065C49.3953 34.9255 49.1632 34.8851 48.9295 34.8872C48.7245 34.8737 48.5191 34.9059 48.3281 34.9816C48.1372 35.0572 47.9654 35.1744 47.8253 35.3246C47.5781 35.6927 47.4461 36.126 47.4461 36.5694C47.4461 37.0128 47.5781 37.4462 47.8253 37.8143C47.9649 37.9654 48.1365 38.0834 48.3275 38.1596C48.5186 38.2358 48.7242 38.2683 48.9295 38.2548C49.1629 38.2563 49.3948 38.217 49.6146 38.1385C49.838 38.0479 50.0447 37.9208 50.2264 37.7623L50.5108 38.4536C50.3078 38.6442 50.0656 38.7883 49.8012 38.8757C49.507 38.9822 49.1965 39.037 48.8836 39.0378Z" fill="#58595B"/>
<path d="M54.536 39.0378C54.1077 39.0508 53.6842 38.9449 53.3125 38.7319C52.9673 38.5301 52.6879 38.2326 52.5081 37.8755C52.3207 37.4677 52.2238 37.0243 52.2238 36.5755C52.2238 36.1268 52.3207 35.6834 52.5081 35.2756C52.6876 34.9218 52.9646 34.6268 53.3064 34.4253C53.6809 34.2284 54.0976 34.1255 54.5207 34.1255C54.9438 34.1255 55.3605 34.2284 55.735 34.4253C56.0767 34.6268 56.3537 34.9218 56.5333 35.2756C56.7309 35.6777 56.8284 36.1215 56.8177 36.5694C56.8291 37.0213 56.7315 37.4692 56.5333 37.8755C56.3548 38.2316 56.0777 38.5289 55.735 38.7319C55.3701 38.9399 54.9559 39.0455 54.536 39.0378ZM54.536 38.2914C54.7303 38.3013 54.9242 38.2655 55.1021 38.1869C55.28 38.1082 55.4371 37.989 55.5606 37.8388C55.8221 37.4725 55.9506 37.0279 55.9246 36.5786C55.9537 36.1294 55.8262 35.6841 55.5637 35.3184C55.4333 35.1766 55.275 35.0634 55.0986 34.9859C54.9222 34.9085 54.7317 34.8685 54.539 34.8685C54.3464 34.8685 54.1559 34.9085 53.9795 34.9859C53.8031 35.0634 53.6447 35.1766 53.5144 35.3184C53.2483 35.6826 53.1185 36.1285 53.1473 36.5786C53.121 37.0284 53.2507 37.4735 53.5144 37.8388C53.6365 37.9899 53.7928 38.1098 53.9705 38.1885C54.1481 38.2673 54.342 38.3025 54.536 38.2914Z" fill="#58595B"/>
<path d="M59.0017 38.9705V34.1929H59.644L62.2103 37.5268V34.1929H63.0177V38.9705H62.3968L59.8245 35.606V38.9705H59.0017Z" fill="#58595B"/>
<path d="M67.0031 39.0377C66.6501 39.0407 66.2986 38.9912 65.9601 38.8909C65.6683 38.8069 65.3931 38.6735 65.1465 38.4963L65.4126 37.8112C65.6348 37.9697 65.8804 38.0925 66.1406 38.1752C66.419 38.2657 66.7103 38.3102 67.0031 38.3067C67.2754 38.3278 67.5477 38.2648 67.7831 38.1262C67.8592 38.0751 67.9214 38.0058 67.9641 37.9247C68.0068 37.8435 68.0287 37.753 68.0277 37.6613C68.0308 37.5897 68.0165 37.5184 67.9862 37.4534C67.9558 37.3885 67.9103 37.3318 67.8534 37.2882C67.6738 37.1722 67.4715 37.096 67.26 37.0649L66.5168 36.9089C65.6665 36.7274 65.2413 36.2921 65.2413 35.6028C65.2349 35.324 65.3185 35.0504 65.4799 34.8229C65.6472 34.5939 65.8749 34.416 66.1375 34.309C66.4444 34.1812 66.7747 34.1187 67.1071 34.1255C67.4188 34.1219 67.729 34.1705 68.0247 34.2693C68.2871 34.3551 68.5288 34.4947 68.7343 34.6791L68.4713 35.3306C68.087 35.0119 67.6001 34.8434 67.101 34.8565C66.8426 34.8411 66.5861 34.9098 66.37 35.0523C66.2868 35.1099 66.2192 35.1874 66.1733 35.2776C66.1274 35.3678 66.1046 35.468 66.1069 35.5692C66.1033 35.6419 66.116 35.7145 66.1441 35.7817C66.1721 35.8489 66.2148 35.909 66.269 35.9576C66.4329 36.0782 66.6242 36.156 66.8257 36.184L67.5628 36.34C67.9297 36.3983 68.2747 36.5524 68.563 36.7865C68.6722 36.8911 68.7579 37.0178 68.8143 37.1581C68.8708 37.2984 68.8967 37.4491 68.8903 37.6001C68.8952 37.8689 68.8149 38.1323 68.6609 38.3526C68.4948 38.5793 68.2678 38.7543 68.0063 38.8573C67.6875 38.9843 67.3462 39.0457 67.0031 39.0377Z" fill="#58595B"/>
<path d="M72.9064 39.0377C72.6324 39.0728 72.354 39.0446 72.0927 38.9551C71.8313 38.8657 71.594 38.7175 71.3989 38.5219C71.2039 38.3262 71.0564 38.0885 70.9678 37.8268C70.8791 37.5652 70.8517 37.2867 70.8877 37.0129V34.1928H71.7533V37.0098C71.7298 37.359 71.839 37.7042 72.0591 37.9763C72.1719 38.0854 72.3066 38.1691 72.4543 38.2218C72.602 38.2746 72.7593 38.2952 72.9156 38.2822C73.6802 38.2822 74.0626 37.853 74.0626 36.9945V34.1836H74.922V37.0098C74.9415 37.2832 74.9067 37.5577 74.8195 37.8176C74.7324 38.0774 74.5947 38.3175 74.4143 38.5238C74.2106 38.7067 73.972 38.8465 73.7128 38.9348C73.4537 39.0231 73.1794 39.0581 72.9064 39.0377Z" fill="#58595B"/>
<path d="M77.2098 38.9705V34.1929H78.0754V38.2334H80.3664V38.9736L77.2098 38.9705Z" fill="#58595B"/>
<path d="M82.584 38.9705V34.9178H80.9446V34.1929H85.0921V34.9178H83.4527V38.9705H82.584Z" fill="#58595B"/>
<path d="M85.8751 38.9705L88.0376 34.1929H88.7503L90.9097 38.9705H90.0318L89.5547 37.8663H87.224L86.756 38.9705H85.8751ZM88.3832 35.1349L87.5237 37.1751H89.258L88.3955 35.1349H88.3832Z" fill="#58595B"/>
<path d="M92.7203 38.9705V34.1929H93.3718L95.938 37.5268V34.1929H96.7455V38.9705H96.1032L93.5278 35.606V38.9705H92.7203Z" fill="#58595B"/>
<path d="M100.229 38.9705V34.9178H98.59V34.1929H102.734V34.9178H101.095V38.9705H100.229Z" fill="#58595B"/>
<path d="M106.062 39.0377C105.709 39.0409 105.358 38.9914 105.019 38.8909C104.727 38.8075 104.452 38.674 104.206 38.4963L104.472 37.8112C104.694 37.9703 104.939 38.0931 105.2 38.1751C105.478 38.2657 105.77 38.3101 106.062 38.3067C106.335 38.3278 106.607 38.2648 106.842 38.1262C106.918 38.075 106.981 38.0058 107.023 37.9246C107.066 37.8435 107.088 37.753 107.087 37.6613C107.09 37.5897 107.076 37.5184 107.045 37.4534C107.015 37.3885 106.969 37.3318 106.913 37.2881C106.733 37.1731 106.53 37.097 106.319 37.0648L105.576 36.9089C104.726 36.7274 104.301 36.292 104.301 35.6028C104.294 35.3239 104.378 35.0504 104.539 34.8228C104.706 34.5931 104.934 34.415 105.197 34.309C105.503 34.1814 105.832 34.1189 106.163 34.1255C106.475 34.1217 106.785 34.1703 107.081 34.2692C107.344 34.3551 107.587 34.4947 107.794 34.6791L107.53 35.3306C107.146 35.0118 106.659 34.8434 106.16 34.8565C105.902 34.8407 105.645 34.9094 105.429 35.0522C105.345 35.1096 105.277 35.1868 105.231 35.2771C105.184 35.3673 105.161 35.4677 105.163 35.5692C105.16 35.6421 105.173 35.7148 105.202 35.782C105.23 35.8492 105.274 35.9091 105.328 35.9576C105.491 36.0777 105.681 36.1555 105.882 36.1839L106.622 36.3399C106.989 36.3983 107.334 36.5523 107.622 36.7865C107.731 36.8911 107.817 37.0177 107.874 37.158C107.93 37.2983 107.956 37.449 107.949 37.6001C107.954 37.8689 107.874 38.1323 107.72 38.3525C107.548 38.5759 107.317 38.7465 107.053 38.845C106.739 38.9746 106.402 39.0401 106.062 39.0377Z" fill="#58595B"/>
<path d="M0 49.9513V45.975H1.64862C2.00637 45.9508 2.36043 46.0597 2.64269 46.2809C2.76164 46.3895 2.85491 46.5233 2.91575 46.6725C2.97659 46.8217 3.00347 46.9825 2.99443 47.1434C3.003 47.4061 2.91729 47.6633 2.7528 47.8683C2.57844 48.0685 2.34112 48.2033 2.07989 48.2506C2.28381 48.3297 2.44854 48.4857 2.53869 48.685L3.22689 49.9513H2.58763L1.89943 48.6789C1.84186 48.5507 1.7456 48.4437 1.62415 48.373C1.49896 48.3182 1.36311 48.2921 1.22652 48.2965H0.587264V49.9421L0 49.9513ZM0.587264 47.8653H1.5538C2.13189 47.8653 2.42246 47.6267 2.42246 47.1495C2.42246 46.6724 2.1166 46.4369 1.5538 46.4369H0.587264V47.8653Z" fill="#808184"/>
<path d="M5.50562 49.9509V45.9746H6.11735V49.9509H5.50562Z" fill="#808184"/>
<path d="M10.586 50.0002C10.2061 50.0137 9.82906 49.9294 9.49102 49.7555C9.19794 49.5971 8.96163 49.3511 8.81505 49.052C8.66278 48.7092 8.58411 48.3382 8.58411 47.9631C8.58411 47.588 8.66278 47.217 8.81505 46.8742C8.96194 46.5747 9.19669 46.3272 9.48796 46.1646C9.81229 45.9919 10.1759 45.9066 10.5432 45.9168C10.8104 45.915 11.076 45.9573 11.3293 46.0423C11.5563 46.1151 11.765 46.2362 11.941 46.3971L11.733 46.8559C11.5696 46.7145 11.382 46.6036 11.1794 46.5286C10.9772 46.4617 10.7653 46.4287 10.5524 46.4307C10.3657 46.4185 10.1786 46.4479 10.0046 46.5166C9.83062 46.5854 9.67402 46.6918 9.54607 46.8283C9.2974 47.1523 9.17461 47.5555 9.20045 47.9631C9.1719 48.3744 9.29849 48.7814 9.55525 49.104C9.69343 49.2409 9.85947 49.3465 10.0421 49.4135C10.2247 49.4805 10.4196 49.5074 10.6135 49.4924C10.9038 49.4925 11.1921 49.445 11.4669 49.3517V48.2843H10.4881V47.8438H11.9532V49.7188C11.7518 49.8111 11.5404 49.8799 11.3232 49.9237C11.0807 49.9744 10.8337 50 10.586 50.0002Z" fill="#808184"/>
<path d="M14.5439 49.9509V45.9746H15.1312V47.6905H17.364V45.9746H17.9452V49.9509H17.364V48.1768H15.1312V49.9509H14.5439Z" fill="#808184"/>
<path d="M21.5421 49.9511V46.4581H20.1321V45.9688H23.5517V46.4581H22.1263V49.9511H21.5421Z" fill="#808184"/>
<path d="M28.8983 49.9513V45.975H30.5469C30.9049 45.9488 31.2597 46.0579 31.541 46.2809C31.7672 46.5252 31.8928 46.8458 31.8928 47.1786C31.8928 47.5115 31.7672 47.8321 31.541 48.0763C31.2625 48.3059 30.9071 48.4207 30.5469 48.3975H29.4856V49.9452L28.8983 49.9513ZM29.4856 47.9326H30.4613C31.0363 47.9326 31.3208 47.6848 31.3208 47.1832C31.3208 46.6816 31.0363 46.4369 30.4613 46.4369H29.4856V47.9326Z" fill="#808184"/>
<path d="M34.2173 49.9509V45.9746H34.8076V49.4523H36.7774V49.957L34.2173 49.9509Z" fill="#808184"/>
<path d="M38.5392 49.9509L40.3132 45.9746H40.7995L42.5797 49.9509H41.968L41.5489 48.9782H39.5333L39.1203 49.9509H38.5392ZM40.5518 46.6169L39.7535 48.5041H41.3654L40.564 46.6169H40.5518Z" fill="#808184"/>
<path d="M46.4918 49.9998C46.1312 50.0106 45.7744 49.9251 45.4579 49.752C45.1708 49.5879 44.9404 49.3405 44.7973 49.0424C44.6481 48.6998 44.571 48.3302 44.571 47.9566C44.571 47.5829 44.6481 47.2133 44.7973 46.8707C44.9423 46.5748 45.1724 46.3288 45.4579 46.1642C45.7744 45.9911 46.1312 45.9056 46.4918 45.9164C46.7502 45.9145 47.0069 45.958 47.2503 46.0449C47.4724 46.1194 47.6743 46.244 47.8406 46.4089L47.6357 46.8769C47.4802 46.7333 47.2998 46.6193 47.1035 46.5404C46.908 46.4674 46.7004 46.4321 46.4918 46.4364C46.309 46.4245 46.1259 46.4538 45.956 46.5221C45.786 46.5904 45.6336 46.6959 45.5099 46.831C45.2887 47.1647 45.1707 47.5562 45.1707 47.9566C45.1707 48.3569 45.2887 48.7485 45.5099 49.0822C45.6333 49.2178 45.7856 49.3239 45.9556 49.3927C46.1255 49.4616 46.3088 49.4913 46.4918 49.4798C46.7004 49.4841 46.908 49.4488 47.1035 49.3758C47.3005 49.2981 47.481 49.1839 47.6357 49.0393L47.8406 49.5104C47.6707 49.6699 47.4697 49.7927 47.2503 49.8713C47.0069 49.9582 46.7502 50.0017 46.4918 49.9998Z" fill="#808184"/>
<path d="M50.2141 49.9509V45.9746H52.7926V46.4487H50.7738V47.6966H52.6672V48.1707H50.7738V49.4829H52.7864V49.957L50.2141 49.9509Z" fill="#808184"/>
<path d="M55.1631 49.9512V49.2783H55.836V49.9512H55.1631Z" fill="#808184"/>
<path d="M61.5067 49.9511V45.9749H63.1553C63.513 45.9512 63.8669 46.0601 64.1494 46.2807C64.3561 46.4887 64.4812 46.764 64.502 47.0565C64.5228 47.349 64.4378 47.6392 64.2626 47.8743C64.0878 48.0739 63.8506 48.2086 63.5897 48.2566C63.793 48.3366 63.9575 48.4922 64.0485 48.6909L64.7367 49.9572H64.0943L63.4031 48.6848C63.3467 48.5568 63.2514 48.4498 63.1309 48.379C63.0057 48.3242 62.8698 48.2981 62.7332 48.3025H62.0909V49.9481L61.5067 49.9511ZM62.094 47.8651H63.0605C63.6386 47.8651 63.9292 47.6265 63.9292 47.1494C63.9292 46.6722 63.6386 46.4367 63.0605 46.4367H62.0909L62.094 47.8651Z" fill="#808184"/>
<path d="M67.0245 49.9509V45.9746H67.6118V49.9509H67.0245Z" fill="#808184"/>
<path d="M72.0927 50.0001C71.7119 50.0132 71.334 49.929 70.9947 49.7554C70.7031 49.596 70.468 49.3503 70.3218 49.0519C70.1695 48.7091 70.0908 48.3381 70.0908 47.963C70.0908 47.5879 70.1695 47.217 70.3218 46.8741C70.4683 46.5754 70.7018 46.3281 70.9916 46.1645C71.3172 45.9923 71.6817 45.907 72.0499 45.9168C72.3161 45.9147 72.5807 45.957 72.8329 46.0422C73.0601 46.1147 73.2689 46.2358 73.4447 46.397L73.2367 46.8558C73.0732 46.7144 72.8857 46.6036 72.6831 46.5285C72.4808 46.4617 72.269 46.4286 72.056 46.4306C71.8693 46.4185 71.6823 46.4478 71.5083 46.5166C71.3343 46.5853 71.1777 46.6918 71.0497 46.8283C70.8011 47.1523 70.6783 47.5554 70.7041 47.963C70.6756 48.3743 70.8022 48.7814 71.0589 49.1039C71.1971 49.2408 71.3631 49.3464 71.5457 49.4134C71.7284 49.4804 71.9233 49.5074 72.1172 49.4924C72.4074 49.4922 72.6957 49.4447 72.9706 49.3517V48.2842H71.9979V47.8437H73.463V49.7187C73.2616 49.8111 73.0502 49.8798 72.8329 49.9236C72.5895 49.9744 72.3414 50 72.0927 50.0001Z" fill="#808184"/>
<path d="M76.0507 49.9509V45.9746H76.6379V47.6905H78.8707V45.9746H79.4519V49.9509H78.8707V48.1768H76.6379V49.9509H76.0507Z" fill="#808184"/>
<path d="M83.0488 49.9511V46.4581H81.6388V45.9688H85.0309V46.4581H83.6178V49.9511H83.0488Z" fill="#808184"/>
<path d="M91.3745 49.9511V46.4581H89.9645V45.9688H93.3688V46.4581H91.9587V49.9511H91.3745Z" fill="#808184"/>
<path d="M95.5497 49.9509V45.9746H96.1369V49.9509H95.5497Z" fill="#808184"/>
<path d="M98.7643 49.9509V45.9746H99.2567L100.731 48.7274L102.199 45.9746H102.679V49.9509H102.159V47.0298L100.911 49.3391H100.554L99.2995 47.0421V49.9509H98.7643Z" fill="#808184"/>
<path d="M105.31 49.9509V45.9746H107.885V46.4487H105.876V47.6966H107.766V48.1707H105.876V49.4829H107.885V49.957L105.31 49.9509Z" fill="#808184"/>
<path d="M110.259 49.9512V49.2783H110.932V49.9512H110.259Z" fill="#808184"/>
<path d="M25.8151 0H0V39.0377H39.0377V0H25.8151ZM37.7806 12.5925H34.7678V13.8496H37.7806V18.8903H33.0581V20.1474H37.7806V25.1881H34.7678V26.4452H37.7806V31.4828H31.4828V37.7806H26.4422V34.7678H25.1881V37.7806H20.1474V33.0581H18.8903V37.7806H13.8496V34.7678H12.5925V37.7806H7.5549V31.4828H1.25711V26.4452H4.28213V25.1881H1.25711V20.1474H5.97663V18.8903H1.25711V13.8496H4.28213V12.5925H1.25711V7.5549H7.5549V1.25711H12.5925V4.28213H13.8496V1.25711H18.8903V5.97663H20.1474V1.25711H25.1881V4.28213H26.4422V1.25711H31.4828V7.5549H37.7806V12.5925ZM37.7806 6.29779H32.7277V1.25711H37.7684L37.7806 6.29779ZM6.29779 1.25711V6.29779H1.25711V1.25711H6.29779ZM1.25711 32.7277H6.29779V37.7684H1.25711V32.7277ZM32.7277 37.7806V32.7277H37.7684V37.7684L32.7277 37.7806Z" fill="#F6921E"/>
<path d="M25.9344 21.0681L26.3779 22.732L22.5118 20.5145C22.6207 20.1934 22.6755 19.8564 22.6739 19.5174C22.6768 18.7709 22.412 18.0482 21.9276 17.4803L27.528 11.8891V12.6109H28.051V11.0112H26.4269V11.5343H27.1457L21.5544 17.1286C20.9873 16.6421 20.2645 16.3752 19.5173 16.3761C18.7893 16.378 18.0842 16.6305 17.5205 17.0912C16.9567 17.5519 16.5688 18.1926 16.422 18.9056H10.6105L11.834 17.6822L10.9439 16.7952L8.21558 19.5235L10.9439 22.2549L11.834 21.3679L10.6105 20.1444H16.422C16.5381 20.7208 16.8131 21.2533 17.2158 21.6817C17.6186 22.1101 18.1331 22.4173 18.7012 22.5688C19.2694 22.7202 19.8686 22.7097 20.4311 22.5386C20.9937 22.3675 21.4972 22.0425 21.8848 21.6003L25.7417 23.8148L24.09 24.2553L24.4173 25.4787L28.1397 24.4694L27.1395 20.7378L25.9344 21.0681ZM19.5173 21.4107C19.1273 21.4081 18.7474 21.2855 18.4295 21.0595C18.1116 20.8334 17.8709 20.515 17.7403 20.1475C17.5923 19.7415 17.5923 19.2963 17.7403 18.8904C17.8387 18.6079 18.0026 18.3527 18.2185 18.1457C18.4344 17.9387 18.6962 17.7857 18.9826 17.6992C19.2689 17.6127 19.5717 17.5952 19.8661 17.648C20.1605 17.7009 20.4382 17.8226 20.6766 18.0033C20.8168 18.1088 20.9405 18.2346 21.0436 18.3765C21.2883 18.706 21.4173 19.107 21.4107 19.5174C21.4142 19.6392 21.406 19.7611 21.3862 19.8814C21.2946 20.3106 21.0596 20.6958 20.7199 20.9737C20.3803 21.2517 19.9562 21.4058 19.5173 21.4107Z" fill="#F6921E"/>
</g>
<defs>
<clipPath id="clip0_2040_460">
<rect width="110.932" height="50" fill="white"/>
</clipPath>
</defs>
</svg>
